<mxfile host="app.diagrams.net" modified="2023-09-19T20:26:32.007Z" agent="Mozilla/5.0 (X11; Linux x86_64) AppleWebKit/537.36 (KHTML, like Gecko) Chrome/117.0.0.0 Safari/537.36" etag="D7vj9UMyPWkEUVPGgRMZ" version="21.7.5" type="device">
  <diagram name="Page-1" id="eJWlnziBTVmrnVFzojGL">
    <mxGraphModel dx="1434" dy="1861" grid="1" gridSize="10" guides="1" tooltips="1" connect="1" arrows="1" fold="1" page="1" pageScale="1" pageWidth="850" pageHeight="1100" math="0" shadow="0">
      <root>
        <mxCell id="0" />
        <mxCell id="1" parent="0" />
        <mxCell id="JR9Hu8GTAQiBObCIePYV-26" value="" style="edgeStyle=orthogonalEdgeStyle;rounded=0;orthogonalLoop=1;jettySize=auto;html=1;" edge="1" parent="1" source="JR9Hu8GTAQiBObCIePYV-1" target="JR9Hu8GTAQiBObCIePYV-25">
          <mxGeometry relative="1" as="geometry" />
        </mxCell>
        <mxCell id="JR9Hu8GTAQiBObCIePYV-1" value="start server" style="rounded=1;whiteSpace=wrap;html=1;" vertex="1" parent="1">
          <mxGeometry x="250" y="-70" width="120" height="60" as="geometry" />
        </mxCell>
        <mxCell id="JR9Hu8GTAQiBObCIePYV-31" value="" style="edgeStyle=orthogonalEdgeStyle;rounded=0;orthogonalLoop=1;jettySize=auto;html=1;" edge="1" parent="1" source="JR9Hu8GTAQiBObCIePYV-2" target="JR9Hu8GTAQiBObCIePYV-30">
          <mxGeometry relative="1" as="geometry" />
        </mxCell>
        <mxCell id="JR9Hu8GTAQiBObCIePYV-2" value="init cli" style="rounded=0;whiteSpace=wrap;html=1;" vertex="1" parent="1">
          <mxGeometry x="130" y="140" width="120" height="60" as="geometry" />
        </mxCell>
        <mxCell id="JR9Hu8GTAQiBObCIePYV-29" value="" style="edgeStyle=orthogonalEdgeStyle;rounded=0;orthogonalLoop=1;jettySize=auto;html=1;" edge="1" parent="1" source="JR9Hu8GTAQiBObCIePYV-3" target="JR9Hu8GTAQiBObCIePYV-4">
          <mxGeometry relative="1" as="geometry" />
        </mxCell>
        <mxCell id="JR9Hu8GTAQiBObCIePYV-3" value="init controller" style="rounded=0;whiteSpace=wrap;html=1;" vertex="1" parent="1">
          <mxGeometry x="350" y="140" width="120" height="60" as="geometry" />
        </mxCell>
        <mxCell id="JR9Hu8GTAQiBObCIePYV-4" value="create, delete, update sessions and add them to db" style="rounded=1;whiteSpace=wrap;html=1;" vertex="1" parent="1">
          <mxGeometry x="350" y="230" width="120" height="60" as="geometry" />
        </mxCell>
        <mxCell id="JR9Hu8GTAQiBObCIePYV-10" value="Session" style="swimlane;fontStyle=0;childLayout=stackLayout;horizontal=1;startSize=30;horizontalStack=0;resizeParent=1;resizeParentMax=0;resizeLast=0;collapsible=1;marginBottom=0;whiteSpace=wrap;html=1;" vertex="1" parent="1">
          <mxGeometry x="490" y="410" width="90" height="120" as="geometry">
            <mxRectangle x="640" y="260" width="80" height="30" as="alternateBounds" />
          </mxGeometry>
        </mxCell>
        <mxCell id="JR9Hu8GTAQiBObCIePYV-11" value="send instructions" style="text;strokeColor=none;fillColor=none;align=left;verticalAlign=middle;spacingLeft=4;spacingRight=4;overflow=hidden;points=[[0,0.5],[1,0.5]];portConstraint=eastwest;rotatable=0;whiteSpace=wrap;html=1;" vertex="1" parent="JR9Hu8GTAQiBObCIePYV-10">
          <mxGeometry y="30" width="90" height="30" as="geometry" />
        </mxCell>
        <mxCell id="JR9Hu8GTAQiBObCIePYV-12" value="recieve data" style="text;strokeColor=none;fillColor=none;align=left;verticalAlign=middle;spacingLeft=4;spacingRight=4;overflow=hidden;points=[[0,0.5],[1,0.5]];portConstraint=eastwest;rotatable=0;whiteSpace=wrap;html=1;" vertex="1" parent="JR9Hu8GTAQiBObCIePYV-10">
          <mxGeometry y="60" width="90" height="30" as="geometry" />
        </mxCell>
        <mxCell id="JR9Hu8GTAQiBObCIePYV-13" value="listen for connections" style="text;strokeColor=none;fillColor=none;align=left;verticalAlign=middle;spacingLeft=4;spacingRight=4;overflow=hidden;points=[[0,0.5],[1,0.5]];portConstraint=eastwest;rotatable=0;whiteSpace=wrap;html=1;" vertex="1" parent="JR9Hu8GTAQiBObCIePYV-10">
          <mxGeometry y="90" width="90" height="30" as="geometry" />
        </mxCell>
        <mxCell id="JR9Hu8GTAQiBObCIePYV-14" value="" style="endArrow=classic;html=1;rounded=0;exitX=0.5;exitY=1;exitDx=0;exitDy=0;entryX=0.5;entryY=0;entryDx=0;entryDy=0;" edge="1" parent="1" source="JR9Hu8GTAQiBObCIePYV-4" target="JR9Hu8GTAQiBObCIePYV-10">
          <mxGeometry width="50" height="50" relative="1" as="geometry">
            <mxPoint x="470" y="410" as="sourcePoint" />
            <mxPoint x="520" y="360" as="targetPoint" />
          </mxGeometry>
        </mxCell>
        <mxCell id="JR9Hu8GTAQiBObCIePYV-15" value="Session" style="swimlane;fontStyle=0;childLayout=stackLayout;horizontal=1;startSize=30;horizontalStack=0;resizeParent=1;resizeParentMax=0;resizeLast=0;collapsible=1;marginBottom=0;whiteSpace=wrap;html=1;" vertex="1" parent="1">
          <mxGeometry x="230" y="410" width="90" height="120" as="geometry">
            <mxRectangle x="640" y="260" width="80" height="30" as="alternateBounds" />
          </mxGeometry>
        </mxCell>
        <mxCell id="JR9Hu8GTAQiBObCIePYV-16" value="send instructions" style="text;strokeColor=none;fillColor=none;align=left;verticalAlign=middle;spacingLeft=4;spacingRight=4;overflow=hidden;points=[[0,0.5],[1,0.5]];portConstraint=eastwest;rotatable=0;whiteSpace=wrap;html=1;" vertex="1" parent="JR9Hu8GTAQiBObCIePYV-15">
          <mxGeometry y="30" width="90" height="30" as="geometry" />
        </mxCell>
        <mxCell id="JR9Hu8GTAQiBObCIePYV-17" value="recieve data" style="text;strokeColor=none;fillColor=none;align=left;verticalAlign=middle;spacingLeft=4;spacingRight=4;overflow=hidden;points=[[0,0.5],[1,0.5]];portConstraint=eastwest;rotatable=0;whiteSpace=wrap;html=1;" vertex="1" parent="JR9Hu8GTAQiBObCIePYV-15">
          <mxGeometry y="60" width="90" height="30" as="geometry" />
        </mxCell>
        <mxCell id="JR9Hu8GTAQiBObCIePYV-18" value="listen for connections" style="text;strokeColor=none;fillColor=none;align=left;verticalAlign=middle;spacingLeft=4;spacingRight=4;overflow=hidden;points=[[0,0.5],[1,0.5]];portConstraint=eastwest;rotatable=0;whiteSpace=wrap;html=1;" vertex="1" parent="JR9Hu8GTAQiBObCIePYV-15">
          <mxGeometry y="90" width="90" height="30" as="geometry" />
        </mxCell>
        <mxCell id="JR9Hu8GTAQiBObCIePYV-19" value="Session" style="swimlane;fontStyle=0;childLayout=stackLayout;horizontal=1;startSize=30;horizontalStack=0;resizeParent=1;resizeParentMax=0;resizeLast=0;collapsible=1;marginBottom=0;whiteSpace=wrap;html=1;" vertex="1" parent="1">
          <mxGeometry x="365" y="410" width="90" height="120" as="geometry">
            <mxRectangle x="640" y="260" width="80" height="30" as="alternateBounds" />
          </mxGeometry>
        </mxCell>
        <mxCell id="JR9Hu8GTAQiBObCIePYV-20" value="send instructions" style="text;strokeColor=none;fillColor=none;align=left;verticalAlign=middle;spacingLeft=4;spacingRight=4;overflow=hidden;points=[[0,0.5],[1,0.5]];portConstraint=eastwest;rotatable=0;whiteSpace=wrap;html=1;" vertex="1" parent="JR9Hu8GTAQiBObCIePYV-19">
          <mxGeometry y="30" width="90" height="30" as="geometry" />
        </mxCell>
        <mxCell id="JR9Hu8GTAQiBObCIePYV-21" value="recieve data" style="text;strokeColor=none;fillColor=none;align=left;verticalAlign=middle;spacingLeft=4;spacingRight=4;overflow=hidden;points=[[0,0.5],[1,0.5]];portConstraint=eastwest;rotatable=0;whiteSpace=wrap;html=1;" vertex="1" parent="JR9Hu8GTAQiBObCIePYV-19">
          <mxGeometry y="60" width="90" height="30" as="geometry" />
        </mxCell>
        <mxCell id="JR9Hu8GTAQiBObCIePYV-22" value="listen for connections" style="text;strokeColor=none;fillColor=none;align=left;verticalAlign=middle;spacingLeft=4;spacingRight=4;overflow=hidden;points=[[0,0.5],[1,0.5]];portConstraint=eastwest;rotatable=0;whiteSpace=wrap;html=1;" vertex="1" parent="JR9Hu8GTAQiBObCIePYV-19">
          <mxGeometry y="90" width="90" height="30" as="geometry" />
        </mxCell>
        <mxCell id="JR9Hu8GTAQiBObCIePYV-23" value="" style="endArrow=classic;html=1;rounded=0;exitX=0.5;exitY=1;exitDx=0;exitDy=0;entryX=0.5;entryY=0;entryDx=0;entryDy=0;" edge="1" parent="1" source="JR9Hu8GTAQiBObCIePYV-4" target="JR9Hu8GTAQiBObCIePYV-19">
          <mxGeometry width="50" height="50" relative="1" as="geometry">
            <mxPoint x="380" y="380" as="sourcePoint" />
            <mxPoint x="430" y="330" as="targetPoint" />
          </mxGeometry>
        </mxCell>
        <mxCell id="JR9Hu8GTAQiBObCIePYV-24" value="" style="endArrow=classic;html=1;rounded=0;entryX=0.5;entryY=0;entryDx=0;entryDy=0;exitX=0.5;exitY=1;exitDx=0;exitDy=0;" edge="1" parent="1" source="JR9Hu8GTAQiBObCIePYV-4" target="JR9Hu8GTAQiBObCIePYV-15">
          <mxGeometry width="50" height="50" relative="1" as="geometry">
            <mxPoint x="250" y="360" as="sourcePoint" />
            <mxPoint x="300" y="310" as="targetPoint" />
          </mxGeometry>
        </mxCell>
        <mxCell id="JR9Hu8GTAQiBObCIePYV-27" style="edgeStyle=orthogonalEdgeStyle;rounded=0;orthogonalLoop=1;jettySize=auto;html=1;exitX=0;exitY=0.5;exitDx=0;exitDy=0;entryX=0.5;entryY=0;entryDx=0;entryDy=0;" edge="1" parent="1" source="JR9Hu8GTAQiBObCIePYV-25" target="JR9Hu8GTAQiBObCIePYV-2">
          <mxGeometry relative="1" as="geometry" />
        </mxCell>
        <mxCell id="JR9Hu8GTAQiBObCIePYV-28" style="edgeStyle=orthogonalEdgeStyle;rounded=0;orthogonalLoop=1;jettySize=auto;html=1;exitX=1;exitY=0.5;exitDx=0;exitDy=0;" edge="1" parent="1" source="JR9Hu8GTAQiBObCIePYV-25" target="JR9Hu8GTAQiBObCIePYV-3">
          <mxGeometry relative="1" as="geometry" />
        </mxCell>
        <mxCell id="JR9Hu8GTAQiBObCIePYV-25" value="parse arguments and setup config" style="shape=process;whiteSpace=wrap;html=1;backgroundOutline=1;" vertex="1" parent="1">
          <mxGeometry x="250" y="30" width="120" height="60" as="geometry" />
        </mxCell>
        <mxCell id="JR9Hu8GTAQiBObCIePYV-30" value="listen for inputs and commands&amp;nbsp;" style="rounded=1;whiteSpace=wrap;html=1;" vertex="1" parent="1">
          <mxGeometry x="130" y="230" width="120" height="60" as="geometry" />
        </mxCell>
        <mxCell id="JR9Hu8GTAQiBObCIePYV-33" value="Create a goroutine that creates individual sessions for each connection to a client. Manage of those goroutines is job of controller. Everything that happens inside the goroutine is the job of the session object" style="ellipse;whiteSpace=wrap;html=1;" vertex="1" parent="1">
          <mxGeometry x="580" y="240" width="260" height="130" as="geometry" />
        </mxCell>
        <mxCell id="JR9Hu8GTAQiBObCIePYV-34" value="" style="endArrow=none;dashed=1;html=1;dashPattern=1 3;strokeWidth=2;rounded=0;entryX=0;entryY=0.5;entryDx=0;entryDy=0;exitX=1;exitY=1;exitDx=0;exitDy=0;" edge="1" parent="1" source="JR9Hu8GTAQiBObCIePYV-4" target="JR9Hu8GTAQiBObCIePYV-33">
          <mxGeometry width="50" height="50" relative="1" as="geometry">
            <mxPoint x="510" y="300" as="sourcePoint" />
            <mxPoint x="560" y="250" as="targetPoint" />
          </mxGeometry>
        </mxCell>
        <mxCell id="JR9Hu8GTAQiBObCIePYV-36" style="edgeStyle=orthogonalEdgeStyle;rounded=0;orthogonalLoop=1;jettySize=auto;html=1;exitX=0;exitY=0.5;exitDx=0;exitDy=0;" edge="1" parent="1" source="JR9Hu8GTAQiBObCIePYV-35" target="JR9Hu8GTAQiBObCIePYV-18">
          <mxGeometry relative="1" as="geometry" />
        </mxCell>
        <mxCell id="JR9Hu8GTAQiBObCIePYV-35" value="if command supplied" style="rhombus;whiteSpace=wrap;html=1;" vertex="1" parent="1">
          <mxGeometry x="150" y="300" width="80" height="80" as="geometry" />
        </mxCell>
        <mxCell id="JR9Hu8GTAQiBObCIePYV-38" style="edgeStyle=orthogonalEdgeStyle;rounded=0;orthogonalLoop=1;jettySize=auto;html=1;exitX=0.75;exitY=1;exitDx=0;exitDy=0;entryX=-0.022;entryY=0.767;entryDx=0;entryDy=0;entryPerimeter=0;" edge="1" parent="1" source="JR9Hu8GTAQiBObCIePYV-37" target="JR9Hu8GTAQiBObCIePYV-17">
          <mxGeometry relative="1" as="geometry" />
        </mxCell>
        <mxCell id="JR9Hu8GTAQiBObCIePYV-39" style="edgeStyle=orthogonalEdgeStyle;rounded=0;orthogonalLoop=1;jettySize=auto;html=1;exitX=1;exitY=0.75;exitDx=0;exitDy=0;entryX=0;entryY=0.5;entryDx=0;entryDy=0;" edge="1" parent="1" source="JR9Hu8GTAQiBObCIePYV-37" target="JR9Hu8GTAQiBObCIePYV-16">
          <mxGeometry relative="1" as="geometry" />
        </mxCell>
        <mxCell id="JR9Hu8GTAQiBObCIePYV-37" value="execute the right function on session" style="shape=process;whiteSpace=wrap;html=1;backgroundOutline=1;" vertex="1" parent="1">
          <mxGeometry x="70" y="410" width="120" height="60" as="geometry" />
        </mxCell>
      </root>
    </mxGraphModel>
  </diagram>
</mxfile>
